<svg width="20" height="21" viewBox="0 0 20 21" fill="none" xmlns="http://www.w3.org/2000/svg">
<path d="M14.1667 3.10137C14.1667 2.87125 13.9801 2.6847 13.75 2.6847H11.6667C9.48276 2.57591 7.62106 4.25144 7.5 6.4347V8.6847H5.41667C5.18655 8.6847 5 8.87125 5 9.10137V11.268C5 11.4982 5.18655 11.6847 5.41667 11.6847H7.5V17.268C7.5 17.4982 7.68655 17.6847 7.91667 17.6847H10.4167C10.6468 17.6847 10.8333 17.4982 10.8333 17.268V11.6847H13.0167C13.2073 11.6874 13.3755 11.5605 13.425 11.3764L14.025 9.2097C14.0586 9.08493 14.0324 8.95162 13.9541 8.84884C13.8758 8.74606 13.7542 8.68542 13.625 8.6847H10.8333V6.4347C10.8763 6.00728 11.2371 5.68255 11.6667 5.6847H13.75C13.9801 5.6847 14.1667 5.49815 14.1667 5.26803V3.10137Z" fill="#1877F2"/>
</svg>
